<svg width="18" height="28" viewBox="0 0 18 28" fill="none" xmlns="http://www.w3.org/2000/svg">
<rect x="0.899802" y="0.9" width="16.2" height="26.2" rx="2.1" fill="#ECAD01" stroke="#ECAD01" stroke-width="1.8" stroke-linejoin="round"/>
<mask id="path-2-inside-1_134_1164" fill="white">
<rect x="5.9998" y="1" width="7" height="2" rx="0.8"/>
</mask>
<rect x="5.9998" y="1" width="7" height="2" rx="0.8" stroke="#ECAD01" stroke-width="2" mask="url(#path-2-inside-1_134_1164)"/>
<rect x="8.4998" y="23.5" width="1" height="1" rx="0.5" fill="#F6E9C5" stroke="#F6E9C5"/>
<path d="M9.53886 17.418H7.95683V16.7188C6.82793 16.5234 6.28105 15.875 6.27324 14.8711H8.01152C8.01933 15.1992 8.2498 15.3828 8.80058 15.3828C9.27715 15.3828 9.46074 15.2461 9.46074 15.0742V15.0625C9.44902 14.8633 9.17168 14.8359 8.33574 14.6133C6.70293 14.2422 6.3709 13.8672 6.3709 13.0547C6.3709 12.3203 6.86699 11.7695 7.95683 11.6016V10.9102H9.53886V11.6328C10.6209 11.8867 11.0818 12.6602 11.0936 13.5H9.42949C9.41386 13.1719 9.19902 12.8906 8.71855 12.8906C8.32793 12.8906 8.09355 13.0195 8.09355 13.207C8.09355 13.3711 8.32402 13.4609 8.89824 13.5898C10.8006 13.9766 11.2029 14.2812 11.2029 15.2109C11.2029 16.0391 10.6014 16.5625 9.53886 16.7266V17.418Z" fill="#F6E9C5"/>
</svg>
